<svg xmlns="http://www.w3.org/2000/svg" viewBox="0 0 256 256" role="img" aria-label="Bitcoin">
  <circle cx="128" cy="128" r="120" fill="#f7931a"/>
  <path fill="#ffffff" d="M148.7 83.7c-2.8-11.1-13.2-14.2-26.5-13.5l-4-16.1-9.8 2.4 3.9 15.7c-2.6.6-5.2 1.2-7.8 1.8l-4-16.3-9.8 2.4 4 16.1c-2.1.5-4.1 1-6 1.5v0l-13.5 3.3 2.6 10.4s7.3-1.9 7.1-1.7c4-1 5.9 1.3 6.6 3.3l10.4 41.8c.3 1.1.2 2.8-2.2 3.4.2.1-7.1 1.8-7.1 1.8l-.5 11.2 12.8-3.2c2.4-.6 4.7-1.2 7-1.8l4.1 16.4 9.8-2.4-4-16.1c2.7-.6 5.3-1.3 7.8-1.9l4 16.1 9.8-2.4-4.1-16.4c17.1-3.2 30-9.6 33.4-24.1 2.7-11.7-.1-18.5-10.9-24 6.5-3.5 10.2-9 8.7-17.8zm-12.6 44.7c-1.9 12.3-23.7 5.7-30.4 4.1l6.6 26.5c6.7-1.7 28.8-7.4 30.7-20.6 1.4-9.8-7.9-14.7-6.9-10zM132 103.7c-1.8 11.2-20 5.5-25.6 4.1l6-24.2c5.6-1.4 23.5-7.3 25.6 4.1z"/>
</svg>
