<svg xmlns="http://www.w3.org/2000/svg" viewBox="0 0 512 128" role="img" aria-label="PayPal">
  <path fill="#003087" d="M182.3 30.2c-3.7-3.9-10.4-6.6-18.7-6.6h-24.7c-1.7 0-3.2 1.3-3.5 3l-10 63.5c-.3 2.1 1.3 4 3.5 4h13.5c1.7 0 3.2-1.3 3.5-3l3-19h8.9c18.5 0 29.2-9 32-26.8 1.2-7.6.1-13.7-3.5-17.1zm-10.4 16.8c-1.5 9.8-9 9.8-16.3 9.8h-4.1l2.9-18.4c.2-1.1 1.1-1.9 2.2-1.9h1.8c4.7 0 9.2 0 11.5 2.7 1.4 1.6 1.8 4.1 1.1 7.8z"/>
  <path fill="#009cde" d="M246.3 30.2c-3.7-3.9-10.4-6.6-18.7-6.6h-24.7c-1.7 0-3.2 1.3-3.5 3l-10 63.5c-.3 2.1 1.3 4 3.5 4h13.1c2.1 0 3.9-1.5 4.2-3.6l2.8-17.8h7.9c18.5 0 29.2-9 32-26.8 1.2-7.6.1-13.7-3.6-17.1zm-10.4 16.8c-1.5 9.8-9 9.8-16.3 9.8h-4.1l2.9-18.4c.2-1.1 1.1-1.9 2.2-1.9h1.8c4.7 0 9.2 0 11.5 2.7 1.4 1.6 1.8 4.1 1.1 7.8z"/>
  <path fill="#003087" d="M320.4 50.7h-11.8c-1.1 0-2 .8-2.2 1.9l-.5 3.3-.8-1.2c-2.5-3.7-8-4.9-13.5-4.9-12.6 0-23.3 9.5-25.4 22.8-1.1 6.6.4 12.8 4 17.6 3.3 4.3 8 6.1 13.7 6.1 9.8 0 15.3-6.3 15.3-6.3l-.5 3.3c-.3 2.1 1.3 4 3.5 4h10.6c1.7 0 3.2-1.3 3.5-3l6.4-40.8c.3-2.1-1.3-4-3.3-4zm-16.4 22.2c-1.1 6.4-6.1 10.7-12.7 10.7-3.3 0-6-1.1-7.7-3.1-1.7-2.1-2.3-5-1.8-8.3 1-6.3 6.2-10.8 12.6-10.8 3.3 0 6 1.1 7.7 3.2 1.7 2.1 2.3 5.1 1.9 8.3z"/>
  <path fill="#009cde" d="M380.3 50.7h-11.8c-1.1 0-2 .8-2.2 1.9l-.5 3.3-.8-1.2c-2.5-3.7-8-4.9-13.5-4.9-12.6 0-23.3 9.5-25.4 22.8-1.1 6.6.4 12.8 4 17.6 3.3 4.3 8 6.1 13.7 6.1 9.8 0 15.3-6.3 15.3-6.3l-.5 3.3c-.3 2.1 1.3 4 3.5 4h10.6c1.7 0 3.2-1.3 3.5-3l6.4-40.8c.3-2.1-1.3-4-3.3-4zm-16.4 22.2c-1.1 6.4-6.1 10.7-12.7 10.7-3.3 0-6-1.1-7.7-3.1-1.7-2.1-2.3-5-1.8-8.3 1-6.3 6.2-10.8 12.6-10.8 3.3 0 6 1.1 7.7 3.2 1.7 2.1 2.3 5.1 1.9 8.3z"/>
  <path fill="#003087" d="M434.5 51.8h-11.9c-1.1 0-2.2.6-2.8 1.6l-16.4 24.2-6.9-23.3c-.4-1.5-1.8-2.5-3.4-2.5h-11.7c-2.3 0-3.9 2.2-3.3 4.4l13 38.3-12.3 17.4c-1.6 2.2 0 5.3 2.7 5.3h11.8c1.1 0 2.2-.6 2.8-1.6l41.5-59.5c1.6-2.2 0-5.3-2.7-5.3z"/>
</svg>
